<svg width="18" height="16" viewBox="0 0 18 16" fill="none" xmlns="http://www.w3.org/2000/svg">
<path d="M14.6676 9.68297C16.2509 9.68297 17.5333 10.9438 17.5333 12.4993C17.5333 14.054 16.2509 15.3148 14.6676 15.3148C13.0852 15.3148 11.8019 14.054 11.8019 12.4993C11.8019 10.9438 13.0852 9.68297 14.6676 9.68297ZM7.60271 11.2983C8.29623 11.2983 8.85919 11.8514 8.85919 12.5327C8.85919 13.2132 8.29623 13.7672 7.60271 13.7672H2.12311C1.4296 13.7672 0.866638 13.2132 0.866638 12.5327C0.866638 11.8514 1.4296 11.2983 2.12311 11.2983H7.60271ZM3.73236 0.5C5.31569 0.5 6.59809 1.76082 6.59809 3.31547C6.59809 4.87102 5.31569 6.13184 3.73236 6.13184C2.14996 6.13184 0.866638 4.87102 0.866638 3.31547C0.866638 1.76082 2.14996 0.5 3.73236 0.5ZM16.2778 2.08194C16.9703 2.08194 17.5333 2.63502 17.5333 3.31547C17.5333 3.99682 16.9703 4.54991 16.2778 4.54991H10.7982C10.1046 4.54991 9.54168 3.99682 9.54168 3.31547C9.54168 2.63502 10.1046 2.08194 10.7982 2.08194H16.2778Z" fill="white"/>
</svg>
